<?xml version="1.0" encoding="UTF-8"?><svg id="a" xmlns="http://www.w3.org/2000/svg" viewBox="0 0 116.77 142.74"><defs><style>.b{fill:#1d1d1b;}</style></defs><g><g><polygon class="b" points="30.24 113.41 30.24 26.29 30.79 26.63 53.94 40.84 53.94 113.41 53.23 113.41 53.17 112.65 53.17 41.27 31.01 27.67 31.01 113.41 30.24 113.41"/><polygon class="b" points="65.39 49.67 65.39 1.29 42.42 13.74 42.42 33.98 41.71 33.98 41.66 33.62 41.66 13.28 66.15 0 66.15 49.67 65.39 49.67"/></g><path class="b" d="M65.05,83.87h.88c6.15,0,11.18-5.03,11.18-11.18s-5.03-11.18-11.18-11.18h-11.97v51.88h-.8V61.52h-6.39v51.88h-.8V60.73h19.95c6.63,0,11.97,5.35,11.97,11.97s-5.11,11.73-11.41,11.97l4.07,5.83c7.9-2,13.73-9.26,13.73-17.8,0-10.14-8.22-18.36-18.36-18.36h-19.95v-.8h19.95c10.54,0,19.16,8.62,19.16,19.16,0,8.78-5.99,16.28-14.05,18.52l15.49,22.19h-.88l-20.59-29.53Zm-3.59,7.74l.72-.56,15.56,22.35h-.88l-15.41-21.79Z"/></g><g><path class="b" d="M7.09,125.31c.74,0,1.44,.14,2.1,.43,.66,.29,1.22,.67,1.7,1.16,.48,.49,.86,1.06,1.14,1.72,.28,.66,.42,1.36,.42,2.1,0,1.1-.29,2.09-.88,2.97-.59,.88-1.35,1.53-2.29,1.95l2.92,6.44c.06,.11,.07,.21,.02,.3-.05,.09-.14,.14-.28,.14h-.81c-.12,0-.22-.07-.3-.21l-2.85-6.33c-.15,.03-.31,.06-.46,.08-.15,.02-.33,.03-.53,.03H1.32v6c0,.28-.14,.42-.42,.42H.42c-.28,0-.42-.14-.42-.42v-16.39c0-.26,.14-.39,.42-.39H7.09Zm-.39,9.46c.59,0,1.15-.09,1.68-.28,.53-.19,1-.45,1.41-.8,.41-.35,.73-.77,.97-1.27,.24-.5,.36-1.07,.36-1.7,0-.56-.1-1.08-.31-1.58-.21-.49-.5-.93-.87-1.3-.37-.37-.8-.66-1.3-.88-.5-.22-1.03-.32-1.6-.32H1.32v8.14H6.7Z"/><path class="b" d="M26.1,125.61l6.77,16.41c.08,.17,.08,.3,0,.38-.08,.09-.18,.13-.3,.13h-.7c-.15,0-.27-.1-.35-.3l-1.65-4.01h-8.88l-1.65,3.99c-.08,.22-.19,.32-.35,.32h-.72c-.11,0-.2-.04-.28-.13-.08-.08-.08-.21,0-.38l6.86-16.41c.08-.2,.21-.3,.39-.3h.44c.19,0,.32,.1,.39,.3Zm-.65,1.85l-3.89,9.43h7.76l-3.87-9.43Z"/><path class="b" d="M39.51,125.31h6.81c.63,0,1.22,.11,1.77,.34s1.03,.53,1.44,.93c.41,.39,.73,.86,.97,1.39,.24,.53,.36,1.12,.36,1.75,0,.79-.19,1.49-.56,2.12-.37,.63-.85,1.14-1.44,1.54,.42,.17,.8,.41,1.16,.71s.66,.65,.92,1.03,.45,.81,.59,1.26c.14,.46,.21,.92,.21,1.4,0,.62-.12,1.21-.35,1.78-.23,.57-.55,1.07-.96,1.51-.41,.43-.89,.78-1.45,1.03-.56,.26-1.15,.39-1.78,.41h-7.72c-.23,0-.35-.11-.35-.32v-16.43c0-.29,.12-.44,.37-.44Zm10.01,4.4c0-.45-.08-.86-.24-1.24-.16-.38-.39-.7-.68-.97-.29-.27-.63-.48-1.02-.64-.39-.15-.81-.23-1.27-.23h-5.84v6.3h5.84c.45,0,.87-.08,1.26-.24s.74-.39,1.03-.68,.52-.63,.68-1.02c.16-.39,.24-.81,.24-1.28Zm.88,8.07c0-.45-.09-.88-.27-1.31-.18-.42-.41-.8-.71-1.12-.29-.32-.64-.59-1.03-.79-.39-.2-.82-.3-1.26-.3h-6.68v6.93h6.74c.45,0,.86-.09,1.25-.28,.39-.18,.72-.43,1.01-.74,.29-.31,.51-.67,.68-1.08,.17-.41,.26-.85,.26-1.31Z"/><path class="b" d="M57.48,133.93c0-1.22,.23-2.37,.7-3.44s1.09-2.01,1.89-2.82c.8-.8,1.73-1.44,2.8-1.9,1.07-.46,2.22-.7,3.44-.7s2.34,.23,3.42,.7,2.01,1.1,2.8,1.9c.8,.8,1.43,1.74,1.89,2.82s.7,2.22,.7,3.44-.23,2.36-.7,3.43c-.46,1.07-1.09,2-1.89,2.79-.8,.8-1.73,1.43-2.8,1.89s-2.22,.7-3.44,.7-2.36-.23-3.43-.7c-1.07-.46-2-1.09-2.79-1.89-.8-.8-1.43-1.73-1.89-2.79-.46-1.07-.7-2.21-.7-3.43Zm1.34-.02c0,1.04,.2,2.01,.59,2.91,.39,.9,.93,1.69,1.6,2.36,.67,.67,1.46,1.2,2.38,1.6s1.88,.59,2.92,.59,1.98-.2,2.9-.59,1.7-.93,2.38-1.6,1.2-1.46,1.6-2.36c.39-.9,.59-1.87,.59-2.91s-.2-1.98-.59-2.9c-.39-.91-.93-1.7-1.6-2.38s-1.46-1.2-2.38-1.6-1.88-.59-2.9-.59-2.01,.2-2.92,.59-1.7,.93-2.38,1.6c-.67,.67-1.2,1.46-1.6,2.38-.39,.91-.59,1.88-.59,2.9Z"/><path class="b" d="M94.6,140.12v-14.44c0-.26,.13-.39,.39-.39h.56c.26,0,.39,.12,.39,.37v16.52c0,.22-.12,.32-.37,.32h-.6c-.09,0-.17-.02-.24-.07s-.13-.1-.17-.16l-11.66-14.74v14.55c0,.28-.14,.42-.42,.42h-.49c-.28,0-.42-.14-.42-.42v-16.36c0-.28,.12-.42,.37-.42h.74c.09,0,.16,.04,.21,.12l11.7,14.69Z"/><path class="b" d="M109.95,125.61l6.77,16.41c.08,.17,.08,.3,0,.38-.08,.09-.18,.13-.3,.13h-.7c-.15,0-.27-.1-.35-.3l-1.64-4.01h-8.88l-1.65,3.99c-.08,.22-.19,.32-.35,.32h-.72c-.11,0-.2-.04-.28-.13-.08-.08-.08-.21,0-.38l6.86-16.41c.08-.2,.21-.3,.39-.3h.44c.19,0,.32,.1,.39,.3Zm-.65,1.85l-3.89,9.43h7.76l-3.87-9.43Z"/></g></svg>